<mxfile host="app.diagrams.net" modified="2022-09-15T14:01:34.912Z" agent="5.0 (X11; Linux x86_64) AppleWebKit/537.36 (KHTML, like Gecko) Chrome/105.0.0.0 Safari/537.36" etag="Sktn8ktUD_JQ3ff_6Dz4" version="20.3.1" type="github">
  <diagram id="C5RBs43oDa-KdzZeNtuy" name="Page-1">
    <mxGraphModel dx="2249" dy="793" grid="1" gridSize="10" guides="1" tooltips="1" connect="1" arrows="1" fold="1" page="1" pageScale="1" pageWidth="827" pageHeight="1169" math="0" shadow="0">
      <root>
        <mxCell id="WIyWlLk6GJQsqaUBKTNV-0" />
        <mxCell id="WIyWlLk6GJQsqaUBKTNV-1" parent="WIyWlLk6GJQsqaUBKTNV-0" />
        <mxCell id="WIyWlLk6GJQsqaUBKTNV-2" value="" style="rounded=0;html=1;jettySize=auto;orthogonalLoop=1;fontSize=11;endArrow=block;endFill=0;endSize=8;strokeWidth=1;shadow=0;labelBackgroundColor=none;edgeStyle=orthogonalEdgeStyle;" parent="WIyWlLk6GJQsqaUBKTNV-1" source="WIyWlLk6GJQsqaUBKTNV-3" target="dN93rGYyCDhXa464qiN6-0" edge="1">
          <mxGeometry relative="1" as="geometry">
            <Array as="points" />
          </mxGeometry>
        </mxCell>
        <mxCell id="WIyWlLk6GJQsqaUBKTNV-3" value="Deploy Network" style="rounded=1;whiteSpace=wrap;html=1;fontSize=12;glass=0;strokeWidth=1;shadow=0;" parent="WIyWlLk6GJQsqaUBKTNV-1" vertex="1">
          <mxGeometry x="160" y="80" width="120" height="40" as="geometry" />
        </mxCell>
        <mxCell id="WIyWlLk6GJQsqaUBKTNV-4" value="Yes" style="rounded=0;html=1;jettySize=auto;orthogonalLoop=1;fontSize=11;endArrow=block;endFill=0;endSize=8;strokeWidth=1;shadow=0;labelBackgroundColor=none;edgeStyle=orthogonalEdgeStyle;exitX=0.5;exitY=1;exitDx=0;exitDy=0;entryX=0.5;entryY=0;entryDx=0;entryDy=0;" parent="WIyWlLk6GJQsqaUBKTNV-1" source="WIyWlLk6GJQsqaUBKTNV-6" target="dN93rGYyCDhXa464qiN6-5" edge="1">
          <mxGeometry y="20" relative="1" as="geometry">
            <mxPoint as="offset" />
            <mxPoint x="220" y="417" as="sourcePoint" />
            <mxPoint x="220" y="430" as="targetPoint" />
            <Array as="points" />
          </mxGeometry>
        </mxCell>
        <mxCell id="WIyWlLk6GJQsqaUBKTNV-5" value="No" style="edgeStyle=orthogonalEdgeStyle;rounded=0;html=1;jettySize=auto;orthogonalLoop=1;fontSize=11;endArrow=block;endFill=0;endSize=8;strokeWidth=1;shadow=0;labelBackgroundColor=none;" parent="WIyWlLk6GJQsqaUBKTNV-1" source="WIyWlLk6GJQsqaUBKTNV-6" target="WIyWlLk6GJQsqaUBKTNV-7" edge="1">
          <mxGeometry y="10" relative="1" as="geometry">
            <mxPoint as="offset" />
          </mxGeometry>
        </mxCell>
        <mxCell id="WIyWlLk6GJQsqaUBKTNV-6" value="Is the&amp;nbsp; Monitoring Engine Started?" style="rhombus;whiteSpace=wrap;html=1;shadow=0;fontFamily=Helvetica;fontSize=12;align=center;strokeWidth=1;spacing=6;spacingTop=-4;" parent="WIyWlLk6GJQsqaUBKTNV-1" vertex="1">
          <mxGeometry x="150" y="271" width="140" height="99" as="geometry" />
        </mxCell>
        <mxCell id="dN93rGYyCDhXa464qiN6-4" style="edgeStyle=orthogonalEdgeStyle;rounded=0;orthogonalLoop=1;jettySize=auto;html=1;entryX=1;entryY=0.5;entryDx=0;entryDy=0;" parent="WIyWlLk6GJQsqaUBKTNV-1" source="WIyWlLk6GJQsqaUBKTNV-7" target="dN93rGYyCDhXa464qiN6-0" edge="1">
          <mxGeometry relative="1" as="geometry">
            <Array as="points">
              <mxPoint x="400" y="200" />
            </Array>
          </mxGeometry>
        </mxCell>
        <mxCell id="WIyWlLk6GJQsqaUBKTNV-7" value="Start Monitoring Engine" style="rounded=1;whiteSpace=wrap;html=1;fontSize=12;glass=0;strokeWidth=1;shadow=0;" parent="WIyWlLk6GJQsqaUBKTNV-1" vertex="1">
          <mxGeometry x="340" y="300.5" width="120" height="40" as="geometry" />
        </mxCell>
        <mxCell id="WIyWlLk6GJQsqaUBKTNV-8" value="No" style="rounded=0;html=1;jettySize=auto;orthogonalLoop=1;fontSize=11;endArrow=block;endFill=0;endSize=8;strokeWidth=1;shadow=0;labelBackgroundColor=none;edgeStyle=orthogonalEdgeStyle;entryX=0.5;entryY=0;entryDx=0;entryDy=0;" parent="WIyWlLk6GJQsqaUBKTNV-1" source="WIyWlLk6GJQsqaUBKTNV-10" target="dN93rGYyCDhXa464qiN6-16" edge="1">
          <mxGeometry x="0.3333" y="20" relative="1" as="geometry">
            <mxPoint as="offset" />
            <mxPoint x="220" y="710" as="targetPoint" />
          </mxGeometry>
        </mxCell>
        <mxCell id="WIyWlLk6GJQsqaUBKTNV-9" value="Yes" style="edgeStyle=orthogonalEdgeStyle;rounded=0;html=1;jettySize=auto;orthogonalLoop=1;fontSize=11;endArrow=block;endFill=0;endSize=8;strokeWidth=1;shadow=0;labelBackgroundColor=none;entryX=0;entryY=0.5;entryDx=0;entryDy=0;" parent="WIyWlLk6GJQsqaUBKTNV-1" source="WIyWlLk6GJQsqaUBKTNV-10" target="dN93rGYyCDhXa464qiN6-10" edge="1">
          <mxGeometry y="10" relative="1" as="geometry">
            <mxPoint as="offset" />
            <mxPoint x="390" y="600" as="targetPoint" />
          </mxGeometry>
        </mxCell>
        <mxCell id="WIyWlLk6GJQsqaUBKTNV-10" value="Re-Configure Network" style="rhombus;whiteSpace=wrap;html=1;shadow=0;fontFamily=Helvetica;fontSize=12;align=center;strokeWidth=1;spacing=6;spacingTop=-4;" parent="WIyWlLk6GJQsqaUBKTNV-1" vertex="1">
          <mxGeometry x="160" y="550" width="120" height="90" as="geometry" />
        </mxCell>
        <mxCell id="dN93rGYyCDhXa464qiN6-3" style="edgeStyle=orthogonalEdgeStyle;rounded=0;orthogonalLoop=1;jettySize=auto;html=1;exitX=0.5;exitY=1;exitDx=0;exitDy=0;" parent="WIyWlLk6GJQsqaUBKTNV-1" source="dN93rGYyCDhXa464qiN6-0" target="WIyWlLk6GJQsqaUBKTNV-6" edge="1">
          <mxGeometry relative="1" as="geometry" />
        </mxCell>
        <mxCell id="dN93rGYyCDhXa464qiN6-0" value="Complete Configure Network Form&amp;nbsp;" style="rounded=1;whiteSpace=wrap;html=1;" parent="WIyWlLk6GJQsqaUBKTNV-1" vertex="1">
          <mxGeometry x="160" y="170" width="120" height="60" as="geometry" />
        </mxCell>
        <mxCell id="dN93rGYyCDhXa464qiN6-7" style="edgeStyle=orthogonalEdgeStyle;rounded=0;orthogonalLoop=1;jettySize=auto;html=1;exitX=0.5;exitY=1;exitDx=0;exitDy=0;entryX=0.5;entryY=0;entryDx=0;entryDy=0;" parent="WIyWlLk6GJQsqaUBKTNV-1" source="dN93rGYyCDhXa464qiN6-5" target="WIyWlLk6GJQsqaUBKTNV-10" edge="1">
          <mxGeometry relative="1" as="geometry">
            <mxPoint x="220" y="520" as="targetPoint" />
          </mxGeometry>
        </mxCell>
        <mxCell id="dN93rGYyCDhXa464qiN6-5" value="Start the network" style="rounded=1;whiteSpace=wrap;html=1;fontSize=12;glass=0;strokeWidth=1;shadow=0;" parent="WIyWlLk6GJQsqaUBKTNV-1" vertex="1">
          <mxGeometry x="160" y="460" width="120" height="40" as="geometry" />
        </mxCell>
        <mxCell id="dN93rGYyCDhXa464qiN6-11" style="edgeStyle=orthogonalEdgeStyle;rounded=0;orthogonalLoop=1;jettySize=auto;html=1;entryX=1;entryY=0.25;entryDx=0;entryDy=0;" parent="WIyWlLk6GJQsqaUBKTNV-1" source="dN93rGYyCDhXa464qiN6-10" target="dN93rGYyCDhXa464qiN6-0" edge="1">
          <mxGeometry relative="1" as="geometry">
            <Array as="points">
              <mxPoint x="620" y="595" />
              <mxPoint x="620" y="185" />
            </Array>
          </mxGeometry>
        </mxCell>
        <mxCell id="dN93rGYyCDhXa464qiN6-13" style="edgeStyle=orthogonalEdgeStyle;rounded=0;orthogonalLoop=1;jettySize=auto;html=1;exitX=0.5;exitY=1;exitDx=0;exitDy=0;entryX=0.5;entryY=0;entryDx=0;entryDy=0;" parent="WIyWlLk6GJQsqaUBKTNV-1" source="dN93rGYyCDhXa464qiN6-10" target="dN93rGYyCDhXa464qiN6-14" edge="1">
          <mxGeometry relative="1" as="geometry">
            <mxPoint x="438" y="670" as="targetPoint" />
          </mxGeometry>
        </mxCell>
        <mxCell id="dN93rGYyCDhXa464qiN6-10" value="Is the network stopped?" style="rhombus;whiteSpace=wrap;html=1;sketch=0;" parent="WIyWlLk6GJQsqaUBKTNV-1" vertex="1">
          <mxGeometry x="358" y="552.5" width="160" height="85" as="geometry" />
        </mxCell>
        <mxCell id="dN93rGYyCDhXa464qiN6-12" value="Yes" style="text;html=1;align=center;verticalAlign=middle;resizable=0;points=[];autosize=1;strokeColor=none;fillColor=none;" parent="WIyWlLk6GJQsqaUBKTNV-1" vertex="1">
          <mxGeometry x="550" y="570" width="40" height="30" as="geometry" />
        </mxCell>
        <mxCell id="dN93rGYyCDhXa464qiN6-21" style="edgeStyle=orthogonalEdgeStyle;rounded=0;orthogonalLoop=1;jettySize=auto;html=1;" parent="WIyWlLk6GJQsqaUBKTNV-1" source="dN93rGYyCDhXa464qiN6-14" edge="1">
          <mxGeometry relative="1" as="geometry">
            <mxPoint x="520" y="600" as="targetPoint" />
            <Array as="points">
              <mxPoint x="520" y="695" />
            </Array>
          </mxGeometry>
        </mxCell>
        <mxCell id="dN93rGYyCDhXa464qiN6-14" value="Stop Network" style="whiteSpace=wrap;html=1;sketch=0;" parent="WIyWlLk6GJQsqaUBKTNV-1" vertex="1">
          <mxGeometry x="398" y="680" width="80" height="30" as="geometry" />
        </mxCell>
        <mxCell id="dN93rGYyCDhXa464qiN6-15" value="No" style="text;html=1;align=center;verticalAlign=middle;resizable=0;points=[];autosize=1;strokeColor=none;fillColor=none;" parent="WIyWlLk6GJQsqaUBKTNV-1" vertex="1">
          <mxGeometry x="430" y="645" width="40" height="30" as="geometry" />
        </mxCell>
        <mxCell id="dN93rGYyCDhXa464qiN6-17" style="edgeStyle=orthogonalEdgeStyle;rounded=0;orthogonalLoop=1;jettySize=auto;html=1;entryX=1;entryY=0.5;entryDx=0;entryDy=0;" parent="WIyWlLk6GJQsqaUBKTNV-1" source="dN93rGYyCDhXa464qiN6-16" target="dN93rGYyCDhXa464qiN6-19" edge="1">
          <mxGeometry relative="1" as="geometry">
            <mxPoint x="50" y="784" as="targetPoint" />
          </mxGeometry>
        </mxCell>
        <mxCell id="gI2TvqFvtKou1xoJCobH-3" style="edgeStyle=orthogonalEdgeStyle;rounded=0;orthogonalLoop=1;jettySize=auto;html=1;" edge="1" parent="WIyWlLk6GJQsqaUBKTNV-1" source="dN93rGYyCDhXa464qiN6-16" target="gI2TvqFvtKou1xoJCobH-4">
          <mxGeometry relative="1" as="geometry">
            <mxPoint x="220" y="879" as="targetPoint" />
          </mxGeometry>
        </mxCell>
        <mxCell id="gI2TvqFvtKou1xoJCobH-11" value="" style="edgeStyle=orthogonalEdgeStyle;rounded=0;orthogonalLoop=1;jettySize=auto;html=1;entryX=0;entryY=0.5;entryDx=0;entryDy=0;" edge="1" parent="WIyWlLk6GJQsqaUBKTNV-1" source="dN93rGYyCDhXa464qiN6-16" target="gI2TvqFvtKou1xoJCobH-21">
          <mxGeometry relative="1" as="geometry">
            <mxPoint x="360" y="769" as="targetPoint" />
            <Array as="points">
              <mxPoint x="380" y="784" />
            </Array>
          </mxGeometry>
        </mxCell>
        <mxCell id="dN93rGYyCDhXa464qiN6-16" value="Choose an option" style="rhombus;whiteSpace=wrap;html=1;shadow=0;fontFamily=Helvetica;fontSize=12;align=center;strokeWidth=1;spacing=6;spacingTop=-4;" parent="WIyWlLk6GJQsqaUBKTNV-1" vertex="1">
          <mxGeometry x="160" y="739" width="120" height="90" as="geometry" />
        </mxCell>
        <mxCell id="gI2TvqFvtKou1xoJCobH-2" style="edgeStyle=orthogonalEdgeStyle;rounded=0;orthogonalLoop=1;jettySize=auto;html=1;exitX=0;exitY=0.5;exitDx=0;exitDy=0;entryX=1;entryY=0.5;entryDx=0;entryDy=0;" edge="1" parent="WIyWlLk6GJQsqaUBKTNV-1" source="dN93rGYyCDhXa464qiN6-19" target="gI2TvqFvtKou1xoJCobH-1">
          <mxGeometry relative="1" as="geometry" />
        </mxCell>
        <mxCell id="dN93rGYyCDhXa464qiN6-19" value="Stop Network" style="rounded=1;whiteSpace=wrap;html=1;sketch=0;" parent="WIyWlLk6GJQsqaUBKTNV-1" vertex="1">
          <mxGeometry x="40" y="761.5" width="70" height="45" as="geometry" />
        </mxCell>
        <mxCell id="gI2TvqFvtKou1xoJCobH-1" value="Delete Network" style="rounded=1;whiteSpace=wrap;html=1;sketch=0;" vertex="1" parent="WIyWlLk6GJQsqaUBKTNV-1">
          <mxGeometry x="-70" y="761.5" width="70" height="45" as="geometry" />
        </mxCell>
        <mxCell id="gI2TvqFvtKou1xoJCobH-6" value="" style="edgeStyle=orthogonalEdgeStyle;rounded=0;orthogonalLoop=1;jettySize=auto;html=1;" edge="1" parent="WIyWlLk6GJQsqaUBKTNV-1" source="gI2TvqFvtKou1xoJCobH-4" target="gI2TvqFvtKou1xoJCobH-5">
          <mxGeometry relative="1" as="geometry" />
        </mxCell>
        <mxCell id="gI2TvqFvtKou1xoJCobH-19" style="edgeStyle=orthogonalEdgeStyle;rounded=0;orthogonalLoop=1;jettySize=auto;html=1;" edge="1" parent="WIyWlLk6GJQsqaUBKTNV-1" source="gI2TvqFvtKou1xoJCobH-4">
          <mxGeometry relative="1" as="geometry">
            <mxPoint x="290" y="789" as="targetPoint" />
          </mxGeometry>
        </mxCell>
        <mxCell id="gI2TvqFvtKou1xoJCobH-4" value="Traffic Generation" style="rounded=1;whiteSpace=wrap;html=1;" vertex="1" parent="WIyWlLk6GJQsqaUBKTNV-1">
          <mxGeometry x="160" y="889" width="120" height="60" as="geometry" />
        </mxCell>
        <mxCell id="gI2TvqFvtKou1xoJCobH-5" value="End /&amp;nbsp;&lt;br&gt;Go Monitoring Page" style="whiteSpace=wrap;html=1;rounded=1;" vertex="1" parent="WIyWlLk6GJQsqaUBKTNV-1">
          <mxGeometry x="160" y="999" width="120" height="60" as="geometry" />
        </mxCell>
        <mxCell id="gI2TvqFvtKou1xoJCobH-13" value="" style="edgeStyle=orthogonalEdgeStyle;rounded=0;orthogonalLoop=1;jettySize=auto;html=1;" edge="1" parent="WIyWlLk6GJQsqaUBKTNV-1" target="gI2TvqFvtKou1xoJCobH-12">
          <mxGeometry relative="1" as="geometry">
            <mxPoint x="460" y="821" as="sourcePoint" />
          </mxGeometry>
        </mxCell>
        <mxCell id="gI2TvqFvtKou1xoJCobH-15" value="" style="edgeStyle=orthogonalEdgeStyle;rounded=0;orthogonalLoop=1;jettySize=auto;html=1;" edge="1" parent="WIyWlLk6GJQsqaUBKTNV-1" target="gI2TvqFvtKou1xoJCobH-14">
          <mxGeometry relative="1" as="geometry">
            <mxPoint x="460" y="821" as="sourcePoint" />
          </mxGeometry>
        </mxCell>
        <mxCell id="gI2TvqFvtKou1xoJCobH-17" value="" style="edgeStyle=orthogonalEdgeStyle;rounded=0;orthogonalLoop=1;jettySize=auto;html=1;" edge="1" parent="WIyWlLk6GJQsqaUBKTNV-1" target="gI2TvqFvtKou1xoJCobH-16">
          <mxGeometry relative="1" as="geometry">
            <mxPoint x="460" y="821" as="sourcePoint" />
          </mxGeometry>
        </mxCell>
        <mxCell id="gI2TvqFvtKou1xoJCobH-20" style="edgeStyle=orthogonalEdgeStyle;rounded=0;orthogonalLoop=1;jettySize=auto;html=1;entryX=1;entryY=0.5;entryDx=0;entryDy=0;exitX=1;exitY=0.5;exitDx=0;exitDy=0;" edge="1" parent="WIyWlLk6GJQsqaUBKTNV-1" source="gI2TvqFvtKou1xoJCobH-21" target="gI2TvqFvtKou1xoJCobH-5">
          <mxGeometry relative="1" as="geometry">
            <mxPoint x="510" y="801.5" as="sourcePoint" />
            <Array as="points">
              <mxPoint x="620" y="784" />
              <mxPoint x="620" y="1029" />
            </Array>
          </mxGeometry>
        </mxCell>
        <mxCell id="gI2TvqFvtKou1xoJCobH-12" value="Network Details" style="ellipse;whiteSpace=wrap;html=1;shadow=0;strokeWidth=1;spacing=6;spacingTop=-4;rounded=1;" vertex="1" parent="WIyWlLk6GJQsqaUBKTNV-1">
          <mxGeometry x="330" y="866" width="80" height="35" as="geometry" />
        </mxCell>
        <mxCell id="gI2TvqFvtKou1xoJCobH-14" value="Traffic Details" style="ellipse;whiteSpace=wrap;html=1;shadow=0;strokeWidth=1;spacing=6;spacingTop=-4;rounded=1;" vertex="1" parent="WIyWlLk6GJQsqaUBKTNV-1">
          <mxGeometry x="420" y="866" width="80" height="40" as="geometry" />
        </mxCell>
        <mxCell id="gI2TvqFvtKou1xoJCobH-16" value="Network Graph" style="ellipse;whiteSpace=wrap;html=1;shadow=0;strokeWidth=1;spacing=6;spacingTop=-4;rounded=1;" vertex="1" parent="WIyWlLk6GJQsqaUBKTNV-1">
          <mxGeometry x="510" y="866" width="80" height="40" as="geometry" />
        </mxCell>
        <mxCell id="gI2TvqFvtKou1xoJCobH-21" value="View &lt;br&gt;Advanced &lt;br&gt;Panel Tabs" style="rhombus;whiteSpace=wrap;html=1;shadow=0;fontFamily=Helvetica;fontSize=12;align=center;strokeWidth=1;spacing=6;spacingTop=-4;" vertex="1" parent="WIyWlLk6GJQsqaUBKTNV-1">
          <mxGeometry x="390" y="749" width="140" height="70" as="geometry" />
        </mxCell>
      </root>
    </mxGraphModel>
  </diagram>
</mxfile>
